<svg width="31" height="29" viewBox="0 0 31 29" fill="none" xmlns="http://www.w3.org/2000/svg">
<path d="M29 14.7549V16.6563C29 21.5323 29 23.9704 27.4183 25.4851C25.8368 27 23.2911 27 18.2 27H12.8C7.70883 27 5.16325 27 3.58162 25.4851C2 23.9704 2 21.5323 2 16.6563V14.7549C2 11.8944 2 10.4641 2.70092 9.27843C3.40184 8.09276 4.68238 7.35689 7.24344 5.88516L9.94344 4.33359C12.6507 2.77786 14.0043 2 15.5 2C16.9957 2 18.3493 2.77786 21.0566 4.33359L23.7566 5.88515C26.3177 7.35689 27.5982 8.09276 28.2991 9.27843" stroke="black" stroke-width="3" stroke-linecap="round"/>
<path d="M19.55 22H11.45" stroke="black" stroke-width="3" stroke-linecap="round"/>
</svg>
