<svg width="25" height="19" viewBox="0 0 25 19" fill="none" xmlns="http://www.w3.org/2000/svg">
<path fill-rule="evenodd" clip-rule="evenodd" d="M12.7951 2.30769C9.1842 2.30769 6.24965 5.41154 6.24965 9.23077H9.52238L5.15874 13.8462L0.795105 9.23077H4.06783C4.06783 4.13077 7.97329 0 12.7951 0C14.5078 0 16.1006 0.530769 17.4424 1.43077L15.8497 3.11538C14.9442 2.59615 13.8969 2.30769 12.7951 2.30769ZM16.0678 9.23077L20.4315 4.61538L24.7951 9.23077H21.5224C21.5224 14.3308 17.6169 18.4615 12.7951 18.4615C11.0824 18.4615 9.48965 17.9308 8.14783 17.0308L9.74056 15.3462C10.646 15.8654 11.6933 16.1538 12.7951 16.1538C16.406 16.1538 19.3406 13.05 19.3406 9.23077H16.0678Z" fill="#DEF2F1"/>
</svg>
