<svg width="43" height="31" viewBox="0 0 43 31" fill="none" xmlns="http://www.w3.org/2000/svg">
<g filter="url(#filter0_d_3949_3004)">
<path d="M6.688 8.92517L5.34399 10.031L4 8.92517L5.34399 7.81935L6.688 8.92517ZM39 21.4361C39 22.2999 38.1491 23 37.0993 23C36.0495 23 35.1986 22.2999 35.1986 21.4361H39ZM14.8475 17.8503L5.34399 10.031L8.03201 7.81935L17.5355 15.6387L14.8475 17.8503ZM5.34399 7.81935L14.8475 0L17.5355 2.21166L8.03201 10.031L5.34399 7.81935ZM6.688 7.36131H25.6951V10.489H6.688V7.36131ZM39 18.3084V21.4361H35.1986V18.3084H39ZM25.6951 7.36131C33.0432 7.36131 39 12.2625 39 18.3084H35.1986C35.1986 13.9899 30.9437 10.489 25.6951 10.489V7.36131Z" fill="white"/>
</g>
<defs>
<filter id="filter0_d_3949_3004" x="0" y="0" width="43" height="31" filterUnits="userSpaceOnUse" color-interpolation-filters="sRGB">
<feFlood flood-opacity="0" result="BackgroundImageFix"/>
<feColorMatrix in="SourceAlpha" type="matrix" values="0 0 0 0 0 0 0 0 0 0 0 0 0 0 0 0 0 0 127 0" result="hardAlpha"/>
<feOffset dy="4"/>
<feGaussianBlur stdDeviation="2"/>
<feComposite in2="hardAlpha" operator="out"/>
<feColorMatrix type="matrix" values="0 0 0 0 0 0 0 0 0 0 0 0 0 0 0 0 0 0 0.25 0"/>
<feBlend mode="normal" in2="BackgroundImageFix" result="effect1_dropShadow_3949_3004"/>
<feBlend mode="normal" in="SourceGraphic" in2="effect1_dropShadow_3949_3004" result="shape"/>
</filter>
</defs>
</svg>
