<svg width="26" height="25" viewBox="0 0 26 25" fill="none" xmlns="http://www.w3.org/2000/svg">
<path d="M22.0715 3.40562C22.0715 3.40562 22.2169 3.50815 19.9554 2.82134C17.928 2.20591 16.0103 2.07383 16.0103 2.07383L15.8774 1.13159C15.786 0.481299 15.2537 0 14.6266 0H13.13H11.6334C11.0071 0 10.4747 0.481299 10.3826 1.13159L10.2497 2.07383C10.2497 2.07383 8.33277 2.20591 6.30543 2.82134C4.04307 3.5082 4.18843 3.40562 4.18843 3.40562C3.68433 3.54473 3.33218 4.02354 3.33218 4.57085V5.38603H13.13H22.9287V4.57085C22.9287 4.02354 22.5765 3.54473 22.0715 3.40562Z" fill="black"/>
<path d="M4.95626 22.692C5.07169 23.9984 6.16592 25 7.47779 25H18.7827C20.094 25 21.1887 23.9984 21.3042 22.692L22.5562 6.7149H3.70425L4.95626 22.692ZM17.3304 10.2492C17.3553 9.83898 17.7079 9.52623 18.1182 9.55118C18.5285 9.57609 18.8408 9.92867 18.8163 10.339L18.1086 22.033C18.0837 22.4432 17.7312 22.7555 17.3209 22.7306C16.9106 22.7057 16.598 22.3536 16.6229 21.9433L17.3304 10.2492ZM12.3858 10.2941C12.3858 9.88297 12.7189 9.54991 13.13 9.54991C13.5411 9.54991 13.8741 9.88297 13.8741 10.2941V21.988C13.8741 22.3992 13.5411 22.7322 13.13 22.7322C12.7189 22.7322 12.3858 22.3991 12.3858 21.988V10.2941ZM8.1418 9.55118C8.55211 9.52628 8.90469 9.83898 8.9296 10.2492L9.63804 21.9432C9.66295 22.3535 9.35025 22.7056 8.94 22.7305C8.52969 22.7554 8.17711 22.4431 8.1522 22.0329L7.44376 10.3389C7.41881 9.92867 7.7315 9.57609 8.1418 9.55118Z" fill="black"/>
</svg>
