<svg width="87" height="33" viewBox="0 0 87 33" fill="none" xmlns="http://www.w3.org/2000/svg">
<path d="M27.7917 17.4997C27.4712 17.4997 27.1639 17.6086 26.9373 17.8024C26.7106 17.9962 26.5833 18.259 26.5833 18.5331V21.6331C26.5833 21.9071 26.7106 22.17 26.9373 22.3638C27.1639 22.5575 27.4712 22.6664 27.7917 22.6664C28.1121 22.6664 28.4195 22.5575 28.6461 22.3638C28.8727 22.17 29 21.9071 29 21.6331V18.5331C29 18.259 28.8727 17.9962 28.6461 17.8024C28.4195 17.6086 28.1121 17.4997 27.7917 17.4997ZM28.4683 13.5421C28.4011 13.5027 28.328 13.4715 28.2508 13.4491C28.1787 13.418 28.1012 13.397 28.0213 13.3871C27.8271 13.3538 27.6264 13.3619 27.4368 13.4105C27.2472 13.4592 27.0744 13.5469 26.9338 13.6661C26.8218 13.7626 26.7332 13.8771 26.673 14.003C26.6129 14.1289 26.5824 14.2637 26.5833 14.3997C26.5833 14.6738 26.7106 14.9366 26.9373 15.1304C27.1639 15.3242 27.4712 15.4331 27.7917 15.4331C28.1121 15.4331 28.4195 15.3242 28.6461 15.1304C28.8727 14.9366 29 14.6738 29 14.3997C28.9956 14.1261 28.8704 13.8641 28.6496 13.6661L28.4683 13.5421Z" fill="black"/>
<path d="M25.375 5.1H24.1667C24.1667 4.27783 23.7847 3.48933 23.1049 2.90797C22.4251 2.32661 21.5031 2 20.5417 2H8.45833C7.49692 2 6.57489 2.32661 5.89507 2.90797C5.21525 3.48933 4.83333 4.27783 4.83333 5.1H3.625C2.68011 5.09971 1.77243 5.41495 1.09532 5.97855C0.418211 6.54215 0.0251971 7.30957 0 8.11733V29.9827C0.0251971 30.7904 0.418211 31.5578 1.09532 32.1214C1.77243 32.6851 2.68011 33.0003 3.625 33H25.375C26.3199 33.0003 27.2276 32.6851 27.9047 32.1214C28.5818 31.5578 28.9748 30.7904 29 29.9827V24.7333C29 24.4593 28.8727 24.1964 28.6461 24.0027C28.4195 23.8089 28.1121 23.7 27.7917 23.7C27.4712 23.7 27.1639 23.8089 26.9372 24.0027C26.7106 24.1964 26.5833 24.4593 26.5833 24.7333V29.9827C26.559 30.2422 26.421 30.4842 26.197 30.6605C25.973 30.8367 25.6794 30.9342 25.375 30.9333H3.625C3.3206 30.9342 3.02704 30.8367 2.80302 30.6605C2.579 30.4842 2.44102 30.2422 2.41667 29.9827V8.11733C2.44102 7.85785 2.579 7.61578 2.80302 7.43953C3.02704 7.26328 3.3206 7.16583 3.625 7.16667H4.83333C4.83333 7.98884 5.21525 8.77734 5.89507 9.3587C6.57489 9.94006 7.49692 10.2667 8.45833 10.2667H20.5417C21.5031 10.2667 22.4251 9.94006 23.1049 9.3587C23.7847 8.77734 24.1667 7.98884 24.1667 7.16667H25.375C25.6794 7.16583 25.973 7.26328 26.197 7.43953C26.421 7.61578 26.559 7.85785 26.5833 8.11733V10.2667C26.5833 10.5407 26.7106 10.8036 26.9372 10.9973C27.1639 11.1911 27.4712 11.3 27.7917 11.3C28.1121 11.3 28.4195 11.1911 28.6461 10.9973C28.8727 10.8036 29 10.5407 29 10.2667V8.11733C28.9748 7.30957 28.5818 6.54215 27.9047 5.97855C27.2276 5.41495 26.3199 5.09971 25.375 5.1ZM21.75 7.16667C21.75 7.44072 21.6227 7.70356 21.3961 7.89734C21.1695 8.09113 20.8621 8.2 20.5417 8.2H8.45833C8.13786 8.2 7.83052 8.09113 7.60391 7.89734C7.37731 7.70356 7.25 7.44072 7.25 7.16667V5.1C7.25 4.82594 7.37731 4.56311 7.60391 4.36932C7.83052 4.17554 8.13786 4.06667 8.45833 4.06667H20.5417C20.8621 4.06667 21.1695 4.17554 21.3961 4.36932C21.6227 4.56311 21.75 4.82594 21.75 5.1V7.16667Z" fill="black"/>
<path d="M22.0642 14.7409L12.0833 24.2683L6.89958 19.8663C6.66843 19.697 6.37109 19.6085 6.06698 19.6186C5.76287 19.6286 5.47439 19.7364 5.2592 19.9205C5.044 20.1045 4.91793 20.3512 4.90618 20.6113C4.89444 20.8713 4.99788 21.1256 5.19583 21.3233L11.2375 26.4899C11.4606 26.6846 11.7646 26.7961 12.0833 26.7999C12.2479 26.7968 12.4099 26.7649 12.5595 26.7062C12.7091 26.6476 12.8431 26.5635 12.9533 26.4589L23.8283 16.1256C24.043 15.9214 24.1541 15.6527 24.1371 15.3785C24.1201 15.1043 23.9765 14.8471 23.7377 14.6634C23.499 14.4798 23.1847 14.3848 22.864 14.3994C22.5434 14.4139 22.2426 14.5368 22.0279 14.7409H22.0642Z" fill="black"/>
<path d="M49.3 10.4V6.2L53.65 2L55.1 4.8L58 6.2L53.65 10.4H49.3ZM49.3 10.4L43.5 15.9999M58 16C58 23.7319 51.5081 30 43.5 30C35.4919 30 29 23.7319 29 16C29 8.26801 35.4919 2 43.5 2M50.75 16C50.75 19.866 47.504 23 43.5 23C39.4959 23 36.25 19.866 36.25 16C36.25 12.134 39.4959 9 43.5 9" stroke="black" stroke-width="3" stroke-linecap="round" stroke-linejoin="round"/>
<path d="M85 14.7549V16.6563C85 21.5323 85 23.9704 83.4183 25.4851C81.8368 27 79.2911 27 74.2 27H68.8C63.7088 27 61.1633 27 59.5816 25.4851C58 23.9704 58 21.5323 58 16.6563V14.7549C58 11.8944 58 10.4641 58.7009 9.27843C59.4018 8.09276 60.6824 7.35689 63.2434 5.88516L65.9434 4.33359C68.6507 2.77786 70.0043 2 71.5 2C72.9957 2 74.3493 2.77786 77.0566 4.33359L79.7566 5.88515C82.3177 7.35689 83.5982 8.09276 84.2991 9.27843" stroke="black" stroke-width="3" stroke-linecap="round"/>
<path d="M75.55 22H67.45" stroke="black" stroke-width="3" stroke-linecap="round"/>
</svg>
