<svg width="25" height="24" viewBox="0 0 25 24" fill="none" xmlns="http://www.w3.org/2000/svg">
<path fill-rule="evenodd" clip-rule="evenodd" d="M19.9 4H18.9V2H16.9V4H8.90002V2H6.90002V4H5.90002C4.79002 4 3.90002 4.9 3.90002 6V20C3.90002 21.1 4.79002 22 5.90002 22H19.9C21 22 21.9 21.1 21.9 20V6C21.9 4.9 21 4 19.9 4ZM19.9 20H5.90002V9H19.9V20ZM7.40002 13C7.40002 11.62 8.52002 10.5 9.90002 10.5C11.28 10.5 12.4 11.62 12.4 13C12.4 14.38 11.28 15.5 9.90002 15.5C8.52002 15.5 7.40002 14.38 7.40002 13Z" fill="white"/>
</svg>
