<svg width="25" height="24" viewBox="0 0 25 24" fill="none" xmlns="http://www.w3.org/2000/svg">
<path fill-rule="evenodd" clip-rule="evenodd" d="M19.8804 4H18.8804V2H16.8804V4H8.8804V2H6.8804V4H5.8804C4.7704 4 3.8804 4.9 3.8804 6V20C3.8804 21.1 4.7704 22 5.8804 22H19.8804C20.9804 22 21.8804 21.1 21.8804 20V6C21.8804 4.9 20.9804 4 19.8804 4ZM19.8804 20H5.8804V9H19.8804V20ZM7.3804 13C7.3804 11.62 8.5004 10.5 9.8804 10.5C11.2604 10.5 12.3804 11.62 12.3804 13C12.3804 14.38 11.2604 15.5 9.8804 15.5C8.5004 15.5 7.3804 14.38 7.3804 13Z" fill="black"/>
</svg>
