<svg width="25" height="24" viewBox="0 0 25 24" fill="none" xmlns="http://www.w3.org/2000/svg">
<path fill-rule="evenodd" clip-rule="evenodd" d="M12.8804 2C7.3504 2 2.8804 6.47 2.8804 12C2.8804 17.53 7.3504 22 12.8804 22C18.4104 22 22.8804 17.53 22.8804 12C22.8804 6.47 18.4104 2 12.8804 2ZM12.8804 20C8.4704 20 4.8804 16.41 4.8804 12C4.8804 7.59 8.4704 4 12.8804 4C17.2904 4 20.8804 7.59 20.8804 12C20.8804 16.41 17.2904 20 12.8804 20ZM12.8804 10.59L16.4704 7L17.8804 8.41L14.2904 12L17.8804 15.59L16.4704 17L12.8804 13.41L9.2904 17L7.8804 15.59L11.4704 12L7.8804 8.41L9.2904 7L12.8804 10.59Z" fill="black"/>
</svg>
