<svg width="24" height="25" viewBox="0 0 24 25" fill="none" xmlns="http://www.w3.org/2000/svg">
<g clip-path="url(#clip0_358_6267)">
<path d="M7.53353 9.52942H5.35541V11.7077H7.53353V9.52942Z" fill="black"/>
<path d="M17.063 9.52942H14.8848V11.7077H17.063V9.52942Z" fill="black"/>
<path d="M13.8865 9.52942H11.7084V11.7077H13.8865V9.52942Z" fill="black"/>
<path d="M7.53353 12.9328H5.35541V15.1111H7.53353V12.9328Z" fill="black"/>
<path d="M10.7101 12.9328H8.53195V15.1111H10.7101V12.9328Z" fill="black"/>
<path d="M17.063 16.3361H14.8848V18.5144H17.063V16.3361Z" fill="black"/>
<path d="M10.7101 16.3361H8.53195V18.5144H10.7101V16.3361Z" fill="black"/>
<path d="M19.0549 2.35641H17.2837V4.05462C17.2837 4.68826 16.7617 5.20359 16.12 5.20359H13.8073C13.1657 5.20359 12.6437 4.68826 12.6437 4.05462V2.35641H9.77155V4.03865C9.77155 4.68112 9.24377 5.20359 8.59501 5.20359H6.30802C5.65926 5.20359 5.13148 4.68112 5.13148 4.03865V2.35641H3.36025C2.20845 2.35641 1.27138 3.28501 1.27138 4.42636V19.8479C1.27138 20.9892 2.20845 21.9178 3.36025 21.9178H19.0549C20.2085 21.9178 21.147 20.9892 21.147 19.8479V4.42636C21.147 3.28505 20.2085 2.35641 19.0549 2.35641ZM19.6495 19.8077C19.6495 20.1741 19.4034 20.4202 19.0369 20.4202H3.38144C3.015 20.4202 2.76881 20.1741 2.76881 19.8077V7.62367H19.6495V19.8077Z" fill="black"/>
<path d="M6.30871 4.38814H8.59433C8.78786 4.38814 8.94531 4.23176 8.94531 4.03951V0.877269C8.94531 0.393536 8.54848 0 8.06064 0H6.84236C6.35456 0 5.9576 0.393493 5.9576 0.877269V4.03951C5.95764 4.23176 6.11509 4.38814 6.30871 4.38814Z" fill="black"/>
<path d="M13.8073 4.38814H16.1201C16.3062 4.38814 16.4576 4.23776 16.4576 4.05312V0.863784C16.4576 0.387543 16.0668 0 15.5864 0H14.341C13.8607 0 13.4699 0.387543 13.4699 0.863784V4.05312C13.4699 4.23776 13.6213 4.38814 13.8073 4.38814Z" fill="black"/>
<path d="M13.6263 12.9328H11.4482V15.1111H13.6263V12.9328Z" fill="black"/>
</g>
<rect width="5.47945" height="8.90411" transform="translate(12.7091 16.0959)" fill="#DEF2F1"/>
<rect width="6" height="14" transform="translate(18 11)" fill="#DEF2F1"/>
<rect width="15" height="5" transform="translate(9 20)" fill="#DEF2F1"/>
<path fill-rule="evenodd" clip-rule="evenodd" d="M22.7829 12.4815C22.0873 11.8395 20.9597 11.8395 20.2641 12.4815L11.8593 20.2398C11.6107 20.4693 11.4412 20.7616 11.3722 21.0799L11.0237 22.6885C10.8576 23.4553 11.59 24.1315 12.4208 23.9781L14.1634 23.6564C14.5082 23.5928 14.8249 23.4363 15.0735 23.2068L23.4783 15.4485C24.1739 14.8065 24.1739 13.7656 23.4783 13.1235L22.7829 12.4815ZM21.1037 13.2565C21.3356 13.0425 21.7114 13.0425 21.9433 13.2565L22.6388 13.8985C22.8707 14.1125 22.8707 14.4595 22.6388 14.6735L21.0528 16.1375L19.5177 14.7205L21.1037 13.2565ZM18.6781 15.4955L12.6989 21.0148C12.616 21.0913 12.5595 21.1888 12.5365 21.2948L12.188 22.9034L13.9306 22.5816C14.0455 22.5604 14.1511 22.5083 14.234 22.4318L20.2132 16.9125L18.6781 15.4955Z" fill="black"/>
<defs>
<clipPath id="clip0_358_6267">
<rect width="21.9178" height="21.9178" fill="white" transform="translate(0.250275)"/>
</clipPath>
</defs>
</svg>
