<svg width="24" height="25" viewBox="0 0 24 25" fill="none" xmlns="http://www.w3.org/2000/svg">
<g clip-path="url(#clip0_358_6335)">
<path d="M7.44357 9.52942H5.26544V11.7077H7.44357V9.52942Z" fill="white"/>
<path d="M16.973 9.52942H14.7949V11.7077H16.973V9.52942Z" fill="white"/>
<path d="M13.7965 9.52942H11.6184V11.7077H13.7965V9.52942Z" fill="white"/>
<path d="M7.44357 12.9328H5.26544V15.1111H7.44357V12.9328Z" fill="white"/>
<path d="M10.6201 12.9328H8.44196V15.1111H10.6201V12.9328Z" fill="white"/>
<path d="M16.973 16.3361H14.7949V18.5144H16.973V16.3361Z" fill="white"/>
<path d="M10.6201 16.3361H8.44196V18.5144H10.6201V16.3361Z" fill="white"/>
<path d="M18.965 2.35641H17.1937V4.05462C17.1937 4.68826 16.6717 5.20359 16.0301 5.20359H13.7174C13.0757 5.20359 12.5537 4.68826 12.5537 4.05462V2.35641H9.68157V4.03865C9.68157 4.68112 9.15378 5.20359 8.50503 5.20359H6.21804C5.56928 5.20359 5.0415 4.68112 5.0415 4.03865V2.35641H3.27027C2.11847 2.35641 1.1814 3.28501 1.1814 4.42636V19.8479C1.1814 20.9892 2.11847 21.9178 3.27027 21.9178H18.965C20.1185 21.9178 21.057 20.9892 21.057 19.8479V4.42636C21.057 3.28505 20.1185 2.35641 18.965 2.35641ZM19.5596 19.8077C19.5596 20.1741 19.3134 20.4202 18.9469 20.4202H3.29146C2.92502 20.4202 2.67883 20.1741 2.67883 19.8077V7.62367H19.5596V19.8077Z" fill="white"/>
<path d="M6.21873 4.38814H8.50434C8.69788 4.38814 8.85533 4.23176 8.85533 4.03951V0.877269C8.85533 0.393536 8.4585 0 7.97065 0H6.75238C6.26458 0 5.86761 0.393493 5.86761 0.877269V4.03951C5.86766 4.23176 6.02511 4.38814 6.21873 4.38814Z" fill="white"/>
<path d="M13.7174 4.38814H16.0301C16.2162 4.38814 16.3676 4.23776 16.3676 4.05312V0.863784C16.3676 0.387543 15.9768 0 15.4964 0H14.251C13.7707 0 13.3799 0.387543 13.3799 0.863784V4.05312C13.3799 4.23776 13.5313 4.38814 13.7174 4.38814Z" fill="white"/>
<path d="M13.5363 12.9328H11.3582V15.1111H13.5363V12.9328Z" fill="white"/>
</g>
<rect width="5.47945" height="8.90411" transform="translate(12.6191 16.0959)" fill="#2A7378"/>
<rect width="6" height="14" transform="translate(17.91 11)" fill="#2A7378"/>
<rect width="15" height="5" transform="translate(8.91003 20)" fill="#2A7378"/>
<path fill-rule="evenodd" clip-rule="evenodd" d="M22.6929 12.4815C21.9974 11.8395 20.8697 11.8395 20.1742 12.4815L11.7693 20.2398C11.5207 20.4693 11.3512 20.7616 11.2823 21.0799L10.9338 22.6885C10.7676 23.4553 11.5001 24.1315 12.3309 23.9781L14.0735 23.6564C14.4183 23.5928 14.7349 23.4363 14.9836 23.2068L23.3884 15.4485C24.0839 14.8065 24.0839 13.7656 23.3884 13.1235L22.6929 12.4815ZM21.0137 13.2565C21.2456 13.0425 21.6215 13.0425 21.8533 13.2565L22.5488 13.8985C22.7807 14.1125 22.7807 14.4595 22.5488 14.6735L20.9628 16.1375L19.4278 14.7205L21.0137 13.2565ZM18.5881 15.4955L12.6089 21.0148C12.526 21.0913 12.4695 21.1888 12.4465 21.2948L12.098 22.9034L13.8406 22.5816C13.9556 22.5604 14.0611 22.5083 14.144 22.4318L20.1232 16.9125L18.5881 15.4955Z" fill="white"/>
<defs>
<clipPath id="clip0_358_6335">
<rect width="21.9178" height="21.9178" fill="white" transform="translate(0.160278)"/>
</clipPath>
</defs>
</svg>
