<svg width="21" height="18" viewBox="0 0 21 18" fill="none" xmlns="http://www.w3.org/2000/svg">
<path fill-rule="evenodd" clip-rule="evenodd" d="M18.9226 0.72227C17.8525 -0.240755 16.1177 -0.240758 15.0476 0.72227L2.1171 12.3598C1.73459 12.704 1.47386 13.1425 1.36778 13.6198L0.831593 16.0327C0.575963 17.183 1.70286 18.1972 2.98101 17.9672L5.66195 17.4846C6.19238 17.3891 6.67955 17.1545 7.06205 16.8102L19.9926 5.17272C21.0626 4.2097 21.0626 2.64833 19.9926 1.68529L18.9226 0.72227ZM16.3392 1.88474C16.696 1.56374 17.2742 1.56374 17.631 1.88474L18.7009 2.84778C19.0577 3.16878 19.0577 3.68924 18.7009 4.01025L16.2609 6.20628L13.8993 4.08078L16.3392 1.88474ZM12.6076 5.24326L3.40874 13.5222C3.28123 13.637 3.19433 13.7831 3.15897 13.9423L2.62278 16.3551L5.30371 15.8725C5.48052 15.8407 5.64291 15.7625 5.77041 15.6477L14.9692 7.36876L12.6076 5.24326Z" fill="white"/>
</svg>
