<svg width="27" height="20" viewBox="0 0 27 20" fill="none" xmlns="http://www.w3.org/2000/svg">
<path d="M25.0452 3.25H22.3785M25.0452 10H18.3785M25.0452 16.75H18.3785M6.3785 19V11.7564C6.3785 11.5224 6.3785 11.4054 6.35127 11.2934C6.32713 11.1942 6.28718 11.0981 6.23253 11.0078C6.17091 10.9061 6.08429 10.8147 5.91102 10.6319L1.51265 5.99304C1.33938 5.81031 1.25275 5.71894 1.19114 5.61719C1.13649 5.52692 1.09654 5.43083 1.07239 5.33154C1.04517 5.21963 1.04517 5.10262 1.04517 4.86859V2.8C1.04517 2.16994 1.04517 1.85491 1.19049 1.61426C1.31833 1.40258 1.5223 1.23048 1.77318 1.12261C2.05839 1 2.43177 1 3.1785 1H14.9118C15.6586 1 16.032 1 16.3172 1.12261C16.5681 1.23048 16.772 1.40258 16.8998 1.61426C17.0452 1.85491 17.0452 2.16994 17.0452 2.8V4.86859C17.0452 5.10262 17.0452 5.21963 17.018 5.33154C16.9938 5.43083 16.9538 5.52692 16.8992 5.61719C16.8376 5.71894 16.7509 5.81031 16.5777 5.99304L12.1793 10.6319C12.0061 10.8147 11.9194 10.9061 11.8578 11.0078C11.8032 11.0981 11.7632 11.1942 11.739 11.2934C11.7118 11.4054 11.7118 11.5224 11.7118 11.7564V15.625L6.3785 19Z" stroke="white" stroke-width="2" stroke-linecap="round" stroke-linejoin="round"/>
</svg>
