<svg width="27" height="20" viewBox="0 0 27 20" fill="none" xmlns="http://www.w3.org/2000/svg">
<path d="M25.5 3.25H22.8334M25.5 10H18.8334M25.5 16.75H18.8334M6.83336 19V11.7564C6.83336 11.5224 6.83336 11.4054 6.80614 11.2934C6.78199 11.1942 6.74204 11.0981 6.68739 11.0078C6.62578 10.9061 6.53915 10.8147 6.36588 10.6319L1.96751 5.99304C1.79424 5.81031 1.70762 5.71894 1.646 5.61719C1.59135 5.52692 1.5514 5.43083 1.52726 5.33154C1.50003 5.21963 1.50003 5.10262 1.50003 4.86859V2.8C1.50003 2.16994 1.50003 1.85491 1.64535 1.61426C1.77319 1.40258 1.97716 1.23048 2.22804 1.12261C2.51326 1 2.88663 1 3.63336 1H15.3667C16.1135 1 16.4868 1 16.772 1.12261C17.023 1.23048 17.2268 1.40258 17.3547 1.61426C17.5 1.85491 17.5 2.16994 17.5 2.8V4.86859C17.5 5.10262 17.5 5.21963 17.4728 5.33154C17.4487 5.43083 17.4087 5.52692 17.354 5.61719C17.2924 5.71894 17.2058 5.81031 17.0326 5.99304L12.6342 10.6319C12.461 10.8147 12.3743 10.9061 12.3127 11.0078C12.258 11.0981 12.218 11.1942 12.1939 11.2934C12.1667 11.4054 12.1667 11.5224 12.1667 11.7564V15.625L6.83336 19Z" stroke="black" stroke-width="2" stroke-linecap="round" stroke-linejoin="round"/>
</svg>
