<svg width="25" height="25" viewBox="0 0 25 25" fill="none" xmlns="http://www.w3.org/2000/svg">
<path d="M1.34686 13.2365C1.15157 13.0411 1.04187 12.7762 1.04187 12.5C1.04187 12.2238 1.15157 11.9589 1.34686 11.7635L7.59686 5.51354C7.79332 5.32379 8.05644 5.2188 8.32957 5.22117C8.60269 5.22354 8.86395 5.33309 9.05708 5.52623C9.25022 5.71936 9.35977 5.98062 9.36214 6.25375C9.36452 6.52687 9.25952 6.78999 9.06977 6.98646L4.5979 11.4583H22.9166C23.1929 11.4583 23.4579 11.5681 23.6532 11.7634C23.8486 11.9588 23.9583 12.2237 23.9583 12.5C23.9583 12.7763 23.8486 13.0412 23.6532 13.2366C23.4579 13.4319 23.1929 13.5417 22.9166 13.5417H4.5979L9.06977 18.0135C9.25952 18.21 9.36452 18.4731 9.36214 18.7462C9.35977 19.0194 9.25022 19.2806 9.05708 19.4738C8.86395 19.6669 8.60269 19.7765 8.32957 19.7788C8.05644 19.7812 7.79332 19.6762 7.59686 19.4865L1.34686 13.2365Z" fill="white"/>
</svg>
