<svg width="26" height="25" viewBox="0 0 26 25" fill="none" xmlns="http://www.w3.org/2000/svg">
<path d="M2.22729 13.2365C2.03201 13.0411 1.9223 12.7762 1.9223 12.5C1.9223 12.2238 2.03201 11.9589 2.22729 11.7635L8.47729 5.51354C8.67375 5.32379 8.93688 5.2188 9.21 5.22117C9.48312 5.22354 9.74438 5.33309 9.93752 5.52623C10.1306 5.71936 10.2402 5.98062 10.2426 6.25375C10.2449 6.52687 10.14 6.78999 9.9502 6.98646L5.47833 11.4583H23.7971C24.0733 11.4583 24.3383 11.5681 24.5337 11.7634C24.729 11.9588 24.8387 12.2237 24.8387 12.5C24.8387 12.7763 24.729 13.0412 24.5337 13.2366C24.3383 13.4319 24.0733 13.5417 23.7971 13.5417H5.47833L9.9502 18.0135C10.14 18.21 10.2449 18.4731 10.2426 18.7462C10.2402 19.0194 10.1306 19.2806 9.93752 19.4738C9.74438 19.6669 9.48312 19.7765 9.21 19.7788C8.93688 19.7812 8.67375 19.6762 8.47729 19.4865L2.22729 13.2365Z" fill="black"/>
</svg>
