<svg width="31" height="22" viewBox="0 0 31 22" fill="none" xmlns="http://www.w3.org/2000/svg">
<path d="M29.2952 9.02083V3.91667C29.2952 2.30584 27.9148 1 26.2118 1H4.6285C2.92562 1 1.54517 2.30584 1.54517 3.91667V17.0417C1.54517 18.6525 2.92562 19.9583 4.6285 19.9583H16.9618" stroke="white" stroke-width="1.536" stroke-linecap="round" stroke-linejoin="round"/>
<path d="M1.54517 6.83333H28.5243" stroke="white" stroke-width="1.536" stroke-linecap="round" stroke-linejoin="round"/>
<path d="M20.8387 13.4173C19.7807 14.4181 19.7807 16.0408 20.8387 17.0417L24.6702 20.6661L28.5017 17.0418C29.5598 16.041 29.5598 14.4183 28.5017 13.4174C27.4437 12.4166 25.7283 12.4166 24.6702 13.4173C23.6123 12.4166 21.8967 12.4164 20.8387 13.4173Z" stroke="white" stroke-width="1.536" stroke-linecap="round" stroke-linejoin="round"/>
<path d="M7.71179 14.125H10.7951" stroke="white" stroke-width="1.536" stroke-linecap="round" stroke-linejoin="round"/>
</svg>
