<svg width="31" height="22" viewBox="0 0 31 22" fill="none" xmlns="http://www.w3.org/2000/svg">
<path d="M29.5 9.02083V3.91667C29.5 2.30584 28.1196 1 26.4167 1H4.83333C3.13045 1 1.75 2.30584 1.75 3.91667V17.0417C1.75 18.6525 3.13045 19.9583 4.83333 19.9583H17.1667" stroke="black" stroke-width="1.536" stroke-linecap="round" stroke-linejoin="round"/>
<path d="M1.75 6.83334H28.7292" stroke="black" stroke-width="1.536" stroke-linecap="round" stroke-linejoin="round"/>
<path d="M21.0435 13.4173C19.9855 14.4181 19.9855 16.0408 21.0435 17.0417L24.875 20.6661L28.7065 17.0418C29.7646 16.041 29.7646 14.4183 28.7065 13.4174C27.6485 12.4166 25.933 12.4166 24.875 13.4173C23.8171 12.4166 22.1015 12.4164 21.0435 13.4173Z" stroke="black" stroke-width="1.536" stroke-linecap="round" stroke-linejoin="round"/>
<path d="M7.91666 14.125H11" stroke="black" stroke-width="1.536" stroke-linecap="round" stroke-linejoin="round"/>
</svg>
