<svg width="25" height="25" viewBox="0 0 25 25" fill="none" xmlns="http://www.w3.org/2000/svg">
<g clip-path="url(#clip0_358_6336)">
<path d="M7.81344 9.52942H5.63531V11.7077H7.81344V9.52942Z" fill="white"/>
<path d="M17.3429 9.52942H15.1647V11.7077H17.3429V9.52942Z" fill="white"/>
<path d="M14.1664 9.52942H11.9883V11.7077H14.1664V9.52942Z" fill="white"/>
<path d="M7.81344 12.9328H5.63531V15.1111H7.81344V12.9328Z" fill="white"/>
<path d="M10.99 12.9328H8.81183V15.1111H10.99V12.9328Z" fill="white"/>
<path d="M17.3429 16.3361H15.1647V18.5144H17.3429V16.3361Z" fill="white"/>
<path d="M10.99 16.3361H8.81183V18.5144H10.99V16.3361Z" fill="white"/>
<path d="M19.3348 2.35641H17.5636V4.05462C17.5636 4.68826 17.0416 5.20359 16.3999 5.20359H14.0872C13.4456 5.20359 12.9236 4.68826 12.9236 4.05462V2.35641H10.0514V4.03865C10.0514 4.68112 9.52366 5.20359 8.8749 5.20359H6.58791C5.93915 5.20359 5.41137 4.68112 5.41137 4.03865V2.35641H3.64014C2.48834 2.35641 1.55127 3.28501 1.55127 4.42636V19.8479C1.55127 20.9892 2.48834 21.9178 3.64014 21.9178H19.3348C20.4884 21.9178 21.4269 20.9892 21.4269 19.8479V4.42636C21.4269 3.28505 20.4884 2.35641 19.3348 2.35641ZM19.9294 19.8077C19.9294 20.1741 19.6832 20.4202 19.3168 20.4202H3.66133C3.29489 20.4202 3.0487 20.1741 3.0487 19.8077V7.62367H19.9294V19.8077Z" fill="white"/>
<path d="M6.5886 4.38814H8.87422C9.06775 4.38814 9.2252 4.23176 9.2252 4.03951V0.877269C9.2252 0.393536 8.82837 0 8.34053 0H7.12225C6.63445 0 6.23749 0.393493 6.23749 0.877269V4.03951C6.23753 4.23176 6.39498 4.38814 6.5886 4.38814Z" fill="white"/>
<path d="M14.0872 4.38814H16.3999C16.5861 4.38814 16.7374 4.23776 16.7374 4.05312V0.863784C16.7374 0.387543 16.3467 0 15.8663 0H14.6209C14.1406 0 13.7498 0.387543 13.7498 0.863784V4.05312C13.7498 4.23776 13.9012 4.38814 14.0872 4.38814Z" fill="white"/>
<path d="M14.5363 12.9328H12.3582V15.1111H14.5363V12.9328Z" fill="white"/>
</g>
<rect width="5.47945" height="8.90411" transform="translate(12.989 16.0959)" fill="#2A7378"/>
<rect width="5.82192" height="11.3014" transform="translate(18.3418 13.6986)" fill="#2A7378"/>
<rect width="10.6164" height="5.47945" transform="translate(13.674 19.5205)" fill="#2A7378"/>
<path fill-rule="evenodd" clip-rule="evenodd" d="M19.4959 16.0142C18.5373 15.0068 16.9355 14.6955 15.7344 15.618C14.5334 16.5405 14.3643 18.0828 15.3075 19.1738C16.0917 20.0809 18.465 21.9941 19.2428 22.6133C19.3298 22.6826 19.3733 22.7172 19.4241 22.7308C19.4683 22.7427 19.5168 22.7427 19.5611 22.7308C19.6119 22.7172 19.6554 22.6826 19.7424 22.6133C20.5203 21.9941 22.8935 20.0809 23.6777 19.1738C24.6209 18.0828 24.4724 16.5308 23.2507 15.618C22.029 14.7052 20.4545 15.0068 19.4959 16.0142Z" fill="white"/>
<defs>
<clipPath id="clip0_358_6336">
<rect width="21.9178" height="21.9178" fill="white" transform="translate(0.530151)"/>
</clipPath>
</defs>
</svg>
