<svg width="25" height="25" viewBox="0 0 25 25" fill="none" xmlns="http://www.w3.org/2000/svg">
<g clip-path="url(#clip0_358_6268)">
<path d="M7.90341 9.52942H5.72528V11.7077H7.90341V9.52942Z" fill="black"/>
<path d="M17.4328 9.52942H15.2547V11.7077H17.4328V9.52942Z" fill="black"/>
<path d="M14.2564 9.52942H12.0783V11.7077H14.2564V9.52942Z" fill="black"/>
<path d="M7.90341 12.9328H5.72528V15.1111H7.90341V12.9328Z" fill="black"/>
<path d="M11.0799 12.9328H8.90182V15.1111H11.0799V12.9328Z" fill="black"/>
<path d="M17.4328 16.3361H15.2547V18.5144H17.4328V16.3361Z" fill="black"/>
<path d="M11.0799 16.3361H8.90182V18.5144H11.0799V16.3361Z" fill="black"/>
<path d="M19.4248 2.35641H17.6536V4.05462C17.6536 4.68826 17.1315 5.20359 16.4899 5.20359H14.1772C13.5356 5.20359 13.0136 4.68826 13.0136 4.05462V2.35641H10.1414V4.03865C10.1414 4.68112 9.61364 5.20359 8.96488 5.20359H6.67789C6.02914 5.20359 5.50135 4.68112 5.50135 4.03865V2.35641H3.73012C2.57832 2.35641 1.64125 3.28501 1.64125 4.42636V19.8479C1.64125 20.9892 2.57832 21.9178 3.73012 21.9178H19.4248C20.5784 21.9178 21.5168 20.9892 21.5168 19.8479V4.42636C21.5168 3.28505 20.5784 2.35641 19.4248 2.35641ZM20.0194 19.8077C20.0194 20.1741 19.7732 20.4202 19.4068 20.4202H3.75131C3.38487 20.4202 3.13868 20.1741 3.13868 19.8077V7.62367H20.0194V19.8077Z" fill="black"/>
<path d="M6.67858 4.38814H8.9642C9.15773 4.38814 9.31518 4.23176 9.31518 4.03951V0.877269C9.31518 0.393536 8.91835 0 8.43051 0H7.21223C6.72443 0 6.32747 0.393493 6.32747 0.877269V4.03951C6.32751 4.23176 6.48496 4.38814 6.67858 4.38814Z" fill="black"/>
<path d="M14.1772 4.38814H16.4899C16.6761 4.38814 16.8274 4.23776 16.8274 4.05312V0.863784C16.8274 0.387543 16.4367 0 15.9562 0H14.7109C14.2306 0 13.8398 0.387543 13.8398 0.863784V4.05312C13.8398 4.23776 13.9912 4.38814 14.1772 4.38814Z" fill="black"/>
<path d="M14.6263 12.9328H12.4482V15.1111H14.6263V12.9328Z" fill="black"/>
</g>
<rect width="5.47945" height="8.90411" transform="translate(13.079 16.0959)" fill="#DEF2F1"/>
<rect width="5.82192" height="11.3014" transform="translate(18.4318 13.6986)" fill="#DEF2F1"/>
<rect width="10.6164" height="5.47945" transform="translate(13.7639 19.5205)" fill="#DEF2F1"/>
<path fill-rule="evenodd" clip-rule="evenodd" d="M19.5859 16.0142C18.6273 15.0068 17.0255 14.6955 15.8244 15.618C14.6234 16.5405 14.4543 18.0828 15.3975 19.1738C16.1817 20.0809 18.5549 21.9941 19.3328 22.6133C19.4198 22.6826 19.4633 22.7172 19.514 22.7308C19.5583 22.7427 19.6068 22.7427 19.6511 22.7308C19.7019 22.7172 19.7454 22.6826 19.8324 22.6133C20.6102 21.9941 22.9835 20.0809 23.7677 19.1738C24.7109 18.0828 24.5624 16.5308 23.3407 15.618C22.119 14.7052 20.5444 15.0068 19.5859 16.0142Z" fill="black"/>
<defs>
<clipPath id="clip0_358_6268">
<rect width="21.9178" height="21.9178" fill="white" transform="translate(0.620148)"/>
</clipPath>
</defs>
</svg>
