<svg width="27" height="17" viewBox="0 0 27 17" fill="none" xmlns="http://www.w3.org/2000/svg">
<path fill-rule="evenodd" clip-rule="evenodd" d="M17.4874 2.81726C15.8264 0.881547 13.0509 0.283328 10.9698 2.05586C8.88865 3.82839 8.59566 6.79195 10.23 8.88835C11.5888 10.6313 15.7011 14.3075 17.0489 15.4973C17.1996 15.6304 17.275 15.697 17.363 15.7231C17.4397 15.7459 17.5237 15.7459 17.6005 15.7231C17.6885 15.697 17.7638 15.6304 17.9146 15.4973C19.2624 14.3075 23.3746 10.6313 24.7335 8.88835C26.3678 6.79195 26.1105 3.80974 23.9936 2.05586C21.8767 0.301974 19.1484 0.881547 17.4874 2.81726Z" stroke="#DEF2F1" stroke-width="2" stroke-linecap="round" stroke-linejoin="round"/>
<path d="M1.7951 6.50961L12.872 6.50961M1.7951 6.50961L6.41049 1.89423M1.7951 6.50961L6.41049 11.125" stroke="#DEF2F1" stroke-width="2" stroke-linecap="round" stroke-linejoin="round"/>
</svg>
