<svg width="25" height="24" viewBox="0 0 25 24" fill="none" xmlns="http://www.w3.org/2000/svg">
<path d="M17.3804 12C17.3804 12.8284 18.052 13.5 18.8804 13.5C19.7088 13.5 20.3804 12.8284 20.3804 12C20.3804 11.1716 19.7088 10.5 18.8804 10.5C18.052 10.5 17.3804 11.1716 17.3804 12Z" fill="#080341"/>
<path d="M11.3804 12C11.3804 12.8284 12.052 13.5 12.8804 13.5C13.7088 13.5 14.3804 12.8284 14.3804 12C14.3804 11.1716 13.7088 10.5 12.8804 10.5C12.052 10.5 11.3804 11.1716 11.3804 12Z" fill="#080341"/>
<path d="M5.3804 12C5.3804 12.8284 6.05197 13.5 6.8804 13.5C7.70883 13.5 8.3804 12.8284 8.3804 12C8.3804 11.1716 7.70883 10.5 6.8804 10.5C6.05197 10.5 5.3804 11.1716 5.3804 12Z" fill="#080341"/>
</svg>
