<svg width="25" height="24" viewBox="0 0 25 24" fill="none" xmlns="http://www.w3.org/2000/svg">
<path d="M16.99 12C16.99 12.8284 17.6616 13.5 18.49 13.5C19.3184 13.5 19.99 12.8284 19.99 12C19.99 11.1716 19.3184 10.5 18.49 10.5C17.6616 10.5 16.99 11.1716 16.99 12Z" fill="white"/>
<path d="M10.99 12C10.99 12.8284 11.6616 13.5 12.49 13.5C13.3184 13.5 13.99 12.8284 13.99 12C13.99 11.1716 13.3184 10.5 12.49 10.5C11.6616 10.5 10.99 11.1716 10.99 12Z" fill="white"/>
<path d="M4.98999 12C4.98999 12.8284 5.66156 13.5 6.48999 13.5C7.31842 13.5 7.98999 12.8284 7.98999 12C7.98999 11.1716 7.31842 10.5 6.48999 10.5C5.66156 10.5 4.98999 11.1716 4.98999 12Z" fill="white"/>
</svg>
