<svg width="25" height="24" viewBox="0 0 25 24" fill="none" xmlns="http://www.w3.org/2000/svg">
<path d="M17.5874 18.707C17.3988 18.8892 17.1462 18.99 16.884 18.9877C16.6218 18.9854 16.371 18.8802 16.1856 18.6948C16.0002 18.5094 15.895 18.2586 15.8927 17.9964C15.8904 17.7342 15.9912 17.4816 16.1734 17.293L20.4664 13H2.8804C2.61519 13 2.36083 12.8947 2.17329 12.7071C1.98576 12.5196 1.8804 12.2652 1.8804 12C1.8804 11.7348 1.98576 11.4804 2.17329 11.2929C2.36083 11.1054 2.61519 11 2.8804 11H20.4664L16.1734 6.70701C15.9912 6.51841 15.8904 6.26581 15.8927 6.00361C15.895 5.74141 16.0002 5.4906 16.1856 5.30519C16.371 5.11978 16.6218 5.01461 16.884 5.01234C17.1462 5.01006 17.3988 5.11085 17.5874 5.29301L23.5874 11.293C23.7749 11.4805 23.8802 11.7348 23.8802 12C23.8802 12.2652 23.7749 12.5195 23.5874 12.707L17.5874 18.707Z" fill="black"/>
</svg>
