<svg width="18" height="18" viewBox="0 0 18 18" fill="none" xmlns="http://www.w3.org/2000/svg">
<path fill-rule="evenodd" clip-rule="evenodd" d="M12.26 10.27L17.99 16L16.5 17.49L10.77 11.76C9.70003 12.53 8.41003 13 7.00003 13C3.41003 13 0.500031 10.09 0.500031 6.5C0.500031 2.91 3.41003 0 7.00003 0C10.59 0 13.5 2.91 13.5 6.5C13.5 7.91 13.03 9.2 12.26 10.27ZM7.00003 2C4.51003 2 2.50003 4.01 2.50003 6.5C2.50003 8.99 4.51003 11 7.00003 11C9.49003 11 11.5 8.99 11.5 6.5C11.5 4.01 9.49003 2 7.00003 2Z" fill="black"/>
</svg>
