<svg width="34" height="35" viewBox="0 0 34 35" fill="none" xmlns="http://www.w3.org/2000/svg">
<path fill-rule="evenodd" clip-rule="evenodd" d="M17.2874 13.8561C15.381 13.8561 13.8355 15.4873 13.8355 17.4995C13.8355 19.5116 15.381 21.1429 17.2874 21.1429C19.1937 21.1429 20.7393 19.5116 20.7393 17.4995C20.7393 15.4873 19.1937 13.8561 17.2874 13.8561ZM11.5342 17.4995C11.5342 14.1458 14.11 11.4271 17.2874 11.4271C20.4648 11.4271 23.0405 14.1458 23.0405 17.4995C23.0405 20.8532 20.4648 23.5719 17.2874 23.5719C14.11 23.5719 11.5342 20.8532 11.5342 17.4995Z" fill="#FEFFFF" stroke="#FEFFFF" stroke-width="0.3"/>
<path fill-rule="evenodd" clip-rule="evenodd" d="M13.6107 4.17344C13.2001 3.45131 12.3353 3.22668 11.693 3.62999L11.6763 3.64048L9.02211 5.24344C8.18235 5.74994 7.89264 6.89826 8.37299 7.77577L7.37669 8.38335L8.37219 7.77433C9.19308 9.26916 9.41375 10.9075 8.68046 12.2506C7.94728 13.5935 6.49423 14.2128 4.86066 14.2128C3.88919 14.2128 3.09636 15.0576 3.09636 16.075V18.925C3.09636 19.9426 3.88919 20.7872 4.86066 20.7872C6.49423 20.7872 7.94728 21.4066 8.68046 22.7495C9.41366 24.0923 9.19312 25.7304 8.37251 27.2252C7.89282 28.1026 8.182 29.2498 9.02148 29.7562L11.6931 31.37C12.3353 31.7732 13.2001 31.5487 13.6107 30.8267L13.7756 30.526C14.5962 29.0317 15.833 28.0133 17.3008 28.0133C18.7698 28.0133 20.0029 29.0325 20.816 30.5286C20.8163 30.5292 20.8166 30.5299 20.8171 30.5305L20.9794 30.8265C21.3901 31.5487 22.2549 31.7733 22.8971 31.3701L22.9139 31.3596L25.5681 29.7567C26.4056 29.2514 26.6997 28.1191 26.216 27.222C25.3967 25.7282 25.1771 24.0914 25.9098 22.7495C26.643 21.4066 28.096 20.7872 29.7296 20.7872C30.701 20.7872 31.4939 19.9426 31.4939 18.925V16.075C31.4939 15.0497 30.6936 14.2128 29.7296 14.2128C28.096 14.2128 26.643 13.5935 25.9098 12.2506C25.1766 10.9078 25.3971 9.2698 26.2175 7.77521C26.6974 6.89775 26.4082 5.7502 25.5687 5.24381L22.8971 3.63013C22.2549 3.22683 21.3901 3.45131 20.9794 4.17346L20.8146 4.474C19.994 5.96831 18.7572 6.9867 17.2893 6.9867C15.8206 6.9867 14.5876 5.96774 13.7745 4.47199C13.7741 4.47115 13.7736 4.47032 13.7732 4.4695L13.6107 4.17344ZM10.5255 1.53681C12.3043 0.426989 14.5606 1.10787 15.5916 2.93688L15.5985 2.9493L15.7672 3.257L15.7697 3.2615C16.3373 4.30669 16.9294 4.55775 17.2893 4.55775C17.651 4.55775 18.2477 4.30455 18.823 3.257C18.823 3.25717 18.8231 3.25682 18.823 3.257L18.9986 2.93683C20.0296 1.10781 22.2859 0.426989 24.0646 1.53681L26.7105 3.1349C28.6628 4.31247 29.325 6.9537 28.2098 8.99093L28.209 8.99237C27.6337 10.0398 27.7241 10.709 27.9036 11.0378C28.0832 11.3669 28.5863 11.7839 29.7296 11.7839C31.9566 11.7839 33.7951 13.6999 33.7951 16.075V18.925C33.7951 21.2757 31.9799 23.2161 29.7296 23.2161C28.5863 23.2161 28.0832 23.6331 27.9036 23.9622C27.7241 24.291 27.6337 24.9601 28.209 26.0077L28.2126 26.0141C29.3221 28.0635 28.6644 30.6861 26.7111 31.8648C26.7109 31.8648 26.7112 31.8647 26.7111 31.8648L24.0645 33.4633C22.2858 34.573 20.0296 33.8922 18.9986 32.0632L18.9917 32.0507L18.823 31.7431L18.8205 31.7385C18.2529 30.6934 17.6609 30.4423 17.3008 30.4423C16.9392 30.4423 16.3425 30.6955 15.7672 31.7431C15.7671 31.7432 15.7672 31.7429 15.7672 31.7431L15.5916 32.0632C14.5606 33.8922 12.3044 34.573 10.5257 33.4633L7.87975 31.8652C7.87953 31.865 7.87995 31.8653 7.87975 31.8652C5.92779 30.6874 5.26534 28.0462 6.3804 26.0091L6.3812 26.0077C6.95641 24.9601 6.86614 24.291 6.68659 23.9622C6.50694 23.6331 6.00393 23.2161 4.86066 23.2161C2.61037 23.2161 0.795105 21.2757 0.795105 18.925V16.075C0.795105 13.7244 2.61037 11.7839 4.86066 11.7839C6.00393 11.7839 6.50694 11.3669 6.68659 11.0378C6.86614 10.709 6.95641 10.0398 6.3812 8.99237L6.3804 8.99093C5.26534 6.95391 5.92718 4.31304 7.87912 3.13527L10.5255 1.53681Z" fill="#FEFFFF"/>
<path d="M18.823 3.257C18.2477 4.30455 17.651 4.55775 17.2893 4.55775C16.9294 4.55775 16.3373 4.30669 15.7697 3.2615L15.7672 3.257L15.5985 2.9493L15.5916 2.93688C14.5606 1.10787 12.3043 0.426989 10.5255 1.53681L7.87912 3.13527C5.92718 4.31304 5.26534 6.95391 6.38041 8.99093L6.3812 8.99237C6.95641 10.0398 6.86614 10.709 6.68659 11.0378C6.50694 11.3669 6.00393 11.7839 4.86066 11.7839C2.61037 11.7839 0.795105 13.7244 0.795105 16.075V18.925C0.795105 21.2757 2.61037 23.2161 4.86066 23.2161C6.00393 23.2161 6.50694 23.6331 6.68659 23.9622C6.86614 24.291 6.95641 24.9601 6.3812 26.0077L6.38041 26.0091C5.26534 28.0462 5.92779 30.6874 7.87975 31.8652M18.823 3.257C18.823 3.25717 18.8231 3.25682 18.823 3.257ZM18.823 3.257L18.9986 2.93683C20.0296 1.10781 22.2859 0.426989 24.0646 1.53681L26.7105 3.1349C28.6628 4.31247 29.325 6.9537 28.2098 8.99093L28.209 8.99237C27.6337 10.0398 27.7241 10.709 27.9036 11.0378C28.0832 11.3669 28.5863 11.7839 29.7296 11.7839C31.9566 11.7839 33.7951 13.6999 33.7951 16.075V18.925C33.7951 21.2757 31.9799 23.2161 29.7296 23.2161C28.5863 23.2161 28.0832 23.6331 27.9036 23.9622C27.7241 24.291 27.6337 24.9601 28.209 26.0077L28.2126 26.0141C29.3221 28.0635 28.6644 30.6861 26.7111 31.8648M26.7111 31.8648C26.7109 31.8648 26.7112 31.8647 26.7111 31.8648ZM26.7111 31.8648L24.0645 33.4633C22.2858 34.573 20.0296 33.8922 18.9986 32.0632L18.9917 32.0507L18.823 31.7431L18.8205 31.7385C18.2529 30.6934 17.6609 30.4423 17.3008 30.4423C16.9392 30.4423 16.3425 30.6955 15.7672 31.7431M15.7672 31.7431C15.7671 31.7432 15.7672 31.7429 15.7672 31.7431ZM15.7672 31.7431L15.5916 32.0632C14.5606 33.8922 12.3044 34.573 10.5257 33.4633L7.87975 31.8652M7.87975 31.8652C7.87953 31.865 7.87995 31.8653 7.87975 31.8652ZM13.6107 4.17344C13.2001 3.45131 12.3353 3.22668 11.693 3.62999L11.6763 3.64048L9.02211 5.24344C8.18235 5.74994 7.89264 6.89826 8.37299 7.77577L7.37669 8.38335L8.37219 7.77433C9.19308 9.26916 9.41375 10.9075 8.68046 12.2506C7.94728 13.5935 6.49423 14.2128 4.86066 14.2128C3.88919 14.2128 3.09636 15.0576 3.09636 16.075V18.925C3.09636 19.9426 3.88919 20.7872 4.86066 20.7872C6.49423 20.7872 7.94728 21.4066 8.68046 22.7495C9.41366 24.0923 9.19312 25.7304 8.37251 27.2252C7.89282 28.1026 8.182 29.2498 9.02148 29.7562L11.6931 31.37C12.3353 31.7732 13.2001 31.5488 13.6107 30.8267L13.7756 30.526C14.5962 29.0317 15.833 28.0133 17.3008 28.0133C18.7697 28.0133 20.0029 29.0325 20.816 30.5286C20.8163 30.5292 20.8166 30.5299 20.8171 30.5305L20.9794 30.8265C21.3901 31.5487 22.2549 31.7733 22.8971 31.3701L22.9139 31.3596L25.5681 29.7567C26.4056 29.2514 26.6997 28.1191 26.216 27.222C25.3967 25.7282 25.1771 24.0914 25.9098 22.7495C26.643 21.4066 28.096 20.7872 29.7296 20.7872C30.701 20.7872 31.4939 19.9426 31.4939 18.925V16.075C31.4939 15.0497 30.6936 14.2128 29.7296 14.2128C28.096 14.2128 26.643 13.5935 25.9098 12.2506C25.1766 10.9078 25.3971 9.26981 26.2175 7.77521C26.6974 6.89775 26.4082 5.7502 25.5687 5.24381L22.8971 3.63013C22.2549 3.22683 21.3901 3.45131 20.9794 4.17346L20.8146 4.474C19.994 5.96831 18.7572 6.9867 17.2893 6.9867C15.8206 6.9867 14.5876 5.96774 13.7745 4.47199C13.7741 4.47115 13.7736 4.47032 13.7732 4.4695L13.6107 4.17344Z" stroke="#FEFFFF" stroke-width="0.3"/>
</svg>
