<svg width="35" height="35" viewBox="0 0 35 35" fill="none" xmlns="http://www.w3.org/2000/svg">
<path fill-rule="evenodd" clip-rule="evenodd" d="M17.4923 13.8561C15.5859 13.8561 14.0404 15.4874 14.0404 17.4995C14.0404 19.5117 15.5859 21.1429 17.4923 21.1429C19.3986 21.1429 20.9442 19.5117 20.9442 17.4995C20.9442 15.4874 19.3986 13.8561 17.4923 13.8561ZM11.7391 17.4995C11.7391 14.1458 14.3149 11.4271 17.4923 11.4271C20.6697 11.4271 23.2454 14.1458 23.2454 17.4995C23.2454 20.8532 20.6697 23.5719 17.4923 23.5719C14.3149 23.5719 11.7391 20.8532 11.7391 17.4995Z" fill="#FEFFFF" stroke="#FEFFFF" stroke-width="0.3"/>
<path fill-rule="evenodd" clip-rule="evenodd" d="M13.8156 4.17344C13.405 3.45131 12.5402 3.22668 11.8979 3.62999L11.8812 3.64048L9.227 5.24344C8.38724 5.74994 8.09753 6.89826 8.57788 7.77577L7.58159 8.38335L8.57708 7.77433C9.39797 9.26916 9.61865 10.9075 8.88536 12.2506C8.15218 13.5935 6.69912 14.2128 5.06555 14.2128C4.09408 14.2128 3.30126 15.0576 3.30126 16.075V18.925C3.30126 19.9426 4.09408 20.7872 5.06555 20.7872C6.69912 20.7872 8.15218 21.4066 8.88536 22.7495C9.61855 24.0923 9.39802 25.7304 8.5774 27.2252C8.09771 28.1026 8.38689 29.2498 9.22637 29.7562L11.898 31.37C12.5402 31.7732 13.4049 31.5487 13.8156 30.8267L13.9805 30.526C14.8011 29.0317 16.0379 28.0133 17.5057 28.0133C18.9746 28.0133 20.2078 29.0325 21.0209 30.5286C21.0212 30.5292 21.0215 30.5299 21.022 30.5305L21.1843 30.8265C21.595 31.5487 22.4598 31.7733 23.102 31.3701L23.1187 31.3596L25.773 29.7567C26.6105 29.2514 26.9046 28.1191 26.4209 27.222C25.6016 25.7282 25.382 24.0914 26.1147 22.7495C26.8479 21.4066 28.3009 20.7872 29.9345 20.7872C30.9059 20.7872 31.6987 19.9426 31.6987 18.925V16.075C31.6987 15.0497 30.8985 14.2128 29.9345 14.2128C28.3009 14.2128 26.8479 13.5935 26.1147 12.2506C25.3815 10.9078 25.602 9.2698 26.4224 7.77521C26.9023 6.89775 26.6131 5.7502 25.7736 5.24381L23.102 3.63013C22.4598 3.22683 21.595 3.45131 21.1843 4.17346L21.0195 4.474C20.1989 5.96831 18.9621 6.9867 17.4942 6.9867C16.0255 6.9867 14.7925 5.96774 13.9794 4.47199C13.979 4.47115 13.9785 4.47032 13.9781 4.4695L13.8156 4.17344ZM10.7304 1.53681C12.5092 0.426989 14.7655 1.10787 15.7965 2.93688L15.8034 2.9493L15.9721 3.257L15.9746 3.2615C16.5422 4.30669 17.1343 4.55775 17.4942 4.55775C17.8559 4.55775 18.4526 4.30455 19.0279 3.257C19.0279 3.25717 19.028 3.25682 19.0279 3.257L19.2035 2.93683C20.2345 1.10781 22.4908 0.426989 24.2695 1.53681L26.9154 3.1349C28.8677 4.31247 29.5299 6.9537 28.4147 8.99093L28.4139 8.99237C27.8386 10.0398 27.929 10.709 28.1085 11.0378C28.2881 11.3669 28.7912 11.7839 29.9345 11.7839C32.1615 11.7839 34 13.6999 34 16.075V18.925C34 21.2757 32.1848 23.2161 29.9345 23.2161C28.7912 23.2161 28.2881 23.6331 28.1085 23.9622C27.929 24.291 27.8386 24.9601 28.4139 26.0077L28.4175 26.0141C29.527 28.0635 28.8693 30.6861 26.916 31.8648C26.9158 31.8648 26.9161 31.8647 26.916 31.8648L24.2694 33.4633C22.4907 34.573 20.2345 33.8922 19.2035 32.0632L19.1966 32.0507L19.0279 31.7431L19.0254 31.7385C18.4578 30.6934 17.8657 30.4423 17.5057 30.4423C17.1441 30.4423 16.5474 30.6955 15.9721 31.7431C15.972 31.7432 15.9721 31.7429 15.9721 31.7431L15.7965 32.0632C14.7655 33.8922 12.5093 34.573 10.7306 33.4633L8.08464 31.8652C8.08443 31.865 8.08484 31.8653 8.08464 31.8652C6.13269 30.6874 5.47023 28.0462 6.5853 26.0091L6.5861 26.0077C7.1613 24.9601 7.07103 24.291 6.89149 23.9622C6.71184 23.6331 6.20883 23.2161 5.06555 23.2161C2.81526 23.2161 1 21.2757 1 18.925V16.075C1 13.7244 2.81526 11.7839 5.06555 11.7839C6.20883 11.7839 6.71184 11.3669 6.89149 11.0378C7.07103 10.709 7.1613 10.0398 6.5861 8.99237L6.5853 8.99093C5.47023 6.95391 6.13207 4.31304 8.08401 3.13527L10.7304 1.53681Z" fill="#FEFFFF"/>
<path d="M19.0279 3.257C18.4526 4.30455 17.8559 4.55775 17.4942 4.55775C17.1343 4.55775 16.5422 4.30669 15.9746 3.2615L15.9721 3.257L15.8034 2.9493L15.7965 2.93688C14.7655 1.10787 12.5092 0.426989 10.7304 1.53681L8.08402 3.13527C6.13207 4.31304 5.47023 6.95391 6.5853 8.99093L6.5861 8.99237C7.1613 10.0398 7.07103 10.709 6.89149 11.0378C6.71184 11.3669 6.20883 11.7839 5.06555 11.7839C2.81526 11.7839 1 13.7244 1 16.075V18.925C1 21.2757 2.81526 23.2161 5.06555 23.2161C6.20883 23.2161 6.71184 23.6331 6.89149 23.9622C7.07103 24.291 7.1613 24.9601 6.5861 26.0077L6.5853 26.0091C5.47023 28.0462 6.13269 30.6874 8.08464 31.8652M19.0279 3.257C19.0279 3.25717 19.028 3.25682 19.0279 3.257ZM19.0279 3.257L19.2035 2.93683C20.2345 1.10781 22.4908 0.426989 24.2695 1.53681L26.9154 3.1349C28.8677 4.31247 29.5299 6.9537 28.4147 8.99093L28.4139 8.99237C27.8386 10.0398 27.929 10.709 28.1085 11.0378C28.2881 11.3669 28.7912 11.7839 29.9344 11.7839C32.1615 11.7839 34 13.6999 34 16.075V18.925C34 21.2757 32.1848 23.2161 29.9344 23.2161C28.7912 23.2161 28.2881 23.6331 28.1085 23.9622C27.929 24.291 27.8386 24.9601 28.4139 26.0077L28.4175 26.0141C29.527 28.0635 28.8693 30.6861 26.916 31.8648M26.916 31.8648C26.9158 31.8648 26.9161 31.8647 26.916 31.8648ZM26.916 31.8648L24.2694 33.4633C22.4907 34.573 20.2345 33.8922 19.2035 32.0632L19.1966 32.0507L19.0279 31.7431L19.0254 31.7385C18.4578 30.6934 17.8657 30.4423 17.5057 30.4423C17.1441 30.4423 16.5474 30.6955 15.9721 31.7431M15.9721 31.7431C15.972 31.7432 15.9721 31.7429 15.9721 31.7431ZM15.9721 31.7431L15.7965 32.0632C14.7655 33.8922 12.5093 34.573 10.7306 33.4633L8.08464 31.8652M8.08464 31.8652C8.08443 31.865 8.08484 31.8653 8.08464 31.8652ZM13.8156 4.17344C13.405 3.45131 12.5402 3.22668 11.8979 3.62999L11.8812 3.64048L9.227 5.24344C8.38724 5.74994 8.09753 6.89826 8.57788 7.77577L7.58159 8.38335L8.57708 7.77433C9.39797 9.26916 9.61865 10.9075 8.88536 12.2506C8.15218 13.5935 6.69912 14.2128 5.06555 14.2128C4.09408 14.2128 3.30126 15.0576 3.30126 16.075V18.925C3.30126 19.9426 4.09408 20.7872 5.06555 20.7872C6.69912 20.7872 8.15218 21.4066 8.88536 22.7495C9.61855 24.0923 9.39802 25.7304 8.5774 27.2252C8.09772 28.1026 8.38689 29.2498 9.22637 29.7562L11.898 31.37C12.5402 31.7732 13.4049 31.5488 13.8156 30.8267L13.9805 30.526C14.8011 29.0317 16.0379 28.0133 17.5057 28.0133C18.9746 28.0133 20.2078 29.0325 21.0209 30.5286C21.0212 30.5292 21.0215 30.5299 21.022 30.5305L21.1843 30.8265C21.595 31.5487 22.4598 31.7733 23.102 31.3701L23.1187 31.3596L25.773 29.7567C26.6105 29.2514 26.9046 28.1191 26.4209 27.222C25.6016 25.7282 25.382 24.0914 26.1147 22.7495C26.8479 21.4066 28.3009 20.7872 29.9344 20.7872C30.9059 20.7872 31.6987 19.9426 31.6987 18.925V16.075C31.6987 15.0497 30.8985 14.2128 29.9344 14.2128C28.3009 14.2128 26.8479 13.5935 26.1147 12.2506C25.3815 10.9078 25.602 9.26981 26.4224 7.77521C26.9023 6.89775 26.6131 5.7502 25.7736 5.24381L23.102 3.63013C22.4598 3.22683 21.595 3.45131 21.1843 4.17346L21.0195 4.474C20.1989 5.96831 18.9621 6.9867 17.4942 6.9867C16.0255 6.9867 14.7925 5.96774 13.9794 4.47199C13.979 4.47115 13.9785 4.47032 13.9781 4.4695L13.8156 4.17344Z" stroke="#FEFFFF" stroke-width="0.3"/>
</svg>
