<svg width="36" height="35" viewBox="0 0 36 35" fill="none" xmlns="http://www.w3.org/2000/svg">
<path d="M14.9546 4.37501C15.0696 4.38419 15.1817 4.41605 15.2844 4.46874C15.3871 4.52143 15.4783 4.59392 15.5529 4.68203C15.6274 4.77014 15.6838 4.87213 15.7188 4.98212C15.7538 5.09211 15.7666 5.20794 15.7567 5.32292L15.7567 13.0521C26.84 14.1458 33.9858 21.7292 34.1317 29.3854C34.1317 29.8229 33.9858 30.1146 33.6942 30.1146C33.4025 30.1146 33.1837 29.8958 32.8921 29.3125C31.1421 25.375 27.2046 23.1146 15.7567 22.6042L15.7567 29.6771C15.7666 29.7921 15.7538 29.9079 15.7188 30.0179C15.6838 30.1279 15.6274 30.2299 15.5529 30.318C15.4783 30.4061 15.3871 30.4786 15.2844 30.5313C15.1817 30.584 15.0696 30.6158 14.9546 30.625C14.8403 30.6315 14.7264 30.6079 14.6241 30.5568C14.5218 30.5056 14.4346 30.4286 14.3712 30.3333L2.33999 18.3021C2.16063 18.1016 2.06147 17.842 2.06147 17.5729C2.06147 17.3039 2.16063 17.0443 2.33999 16.8438L14.3712 4.66667C14.4346 4.57143 14.5218 4.49441 14.6241 4.44324C14.7264 4.39208 14.8403 4.36856 14.9546 4.37501Z" fill="#FEFFFF"/>
</svg>
