<svg width="30" height="21" viewBox="0 0 30 21" fill="none" xmlns="http://www.w3.org/2000/svg">
<path d="M29.0452 9.02083V3.91667C29.0452 2.30584 27.6648 1 25.9618 1H4.3785C2.67562 1 1.29517 2.30584 1.29517 3.91667V17.0417C1.29517 18.6525 2.67562 19.9583 4.3785 19.9583H16.7118" stroke="white" stroke-width="1.536" stroke-linecap="round" stroke-linejoin="round"/>
<path d="M1.29517 6.83333H28.2743" stroke="white" stroke-width="1.536" stroke-linecap="round" stroke-linejoin="round"/>
<path d="M7.46179 14.125H10.5451" stroke="white" stroke-width="1.536" stroke-linecap="round" stroke-linejoin="round"/>
<path d="M21.5414 8.875C21.5907 8.87894 21.6387 8.89259 21.6827 8.91518C21.7267 8.93776 21.7659 8.96883 21.7978 9.00659C21.8298 9.04435 21.8539 9.08806 21.8689 9.1352C21.8839 9.18234 21.8894 9.23198 21.8851 9.28125V12.5938C26.6351 13.0625 29.6976 16.3125 29.7601 19.5938C29.7601 19.7813 29.6976 19.9063 29.5726 19.9063C29.4476 19.9063 29.3539 19.8125 29.2289 19.5625C28.4789 17.875 26.7914 16.9063 21.8851 16.6875L21.8851 19.7188C21.8894 19.768 21.8839 19.8177 21.8689 19.8648C21.8539 19.912 21.8298 19.9557 21.7978 19.9934C21.7659 20.0312 21.7267 20.0623 21.6827 20.0848C21.6387 20.1074 21.5907 20.1211 21.5414 20.125C21.4924 20.1278 21.4436 20.1177 21.3998 20.0958C21.3559 20.0738 21.3185 20.0408 21.2914 20L16.1351 14.8438C16.0583 14.7578 16.0158 14.6466 16.0158 14.5313C16.0158 14.416 16.0583 14.3047 16.1351 14.2188L21.2914 9C21.3185 8.95919 21.3559 8.92618 21.3998 8.90425C21.4436 8.88232 21.4924 8.87224 21.5414 8.875Z" fill="#FEFFFF"/>
</svg>
