<svg width="30" height="21" viewBox="0 0 30 21" fill="none" xmlns="http://www.w3.org/2000/svg">
<path d="M28.6304 9.02083V3.91667C28.6304 2.30584 27.25 1 25.547 1H3.9637C2.26083 1 0.880371 2.30584 0.880371 3.91667V17.0417C0.880371 18.6525 2.26083 19.9583 3.9637 19.9583H16.297" stroke="black" stroke-width="1.536" stroke-linecap="round" stroke-linejoin="round"/>
<path d="M0.880371 6.83334H27.8595" stroke="black" stroke-width="1.536" stroke-linecap="round" stroke-linejoin="round"/>
<path d="M7.04703 14.125H10.1304" stroke="black" stroke-width="1.536" stroke-linecap="round" stroke-linejoin="round"/>
<path d="M21.1266 8.87499C21.1759 8.87893 21.2239 8.89258 21.2679 8.91516C21.312 8.93774 21.3511 8.96881 21.383 9.00657C21.415 9.04433 21.4391 9.08804 21.4541 9.13518C21.4691 9.18232 21.4746 9.23196 21.4703 9.28124V12.5937C26.2203 13.0625 29.2828 16.3125 29.3453 19.5937C29.3453 19.7812 29.2828 19.9062 29.1578 19.9062C29.0328 19.9062 28.9391 19.8125 28.8141 19.5625C28.0641 17.875 26.3766 16.9062 21.4703 16.6875L21.4703 19.7187C21.4746 19.768 21.4691 19.8177 21.4541 19.8648C21.4391 19.9119 21.415 19.9556 21.383 19.9934C21.3511 20.0312 21.312 20.0622 21.2679 20.0848C21.2239 20.1074 21.1759 20.1211 21.1266 20.125C21.0776 20.1278 21.0288 20.1177 20.985 20.0957C20.9411 20.0738 20.9037 20.0408 20.8766 20L15.7203 14.8437C15.6435 14.7578 15.601 14.6465 15.601 14.5312C15.601 14.4159 15.6435 14.3047 15.7203 14.2187L20.8766 8.99999C20.9037 8.95917 20.9411 8.92616 20.985 8.90423C21.0288 8.88231 21.0776 8.87223 21.1266 8.87499Z" fill="black"/>
</svg>
