<svg width="24" height="26" viewBox="0 0 24 26" fill="none" xmlns="http://www.w3.org/2000/svg">
<g clip-path="url(#clip0_358_6269)">
<path d="M7.27329 9.52942H5.09517V11.7077H7.27329V9.52942Z" fill="black"/>
<path d="M16.8027 9.52942H14.6246V11.7077H16.8027V9.52942Z" fill="black"/>
<path d="M13.6263 9.52942H11.4482V11.7077H13.6263V9.52942Z" fill="black"/>
<path d="M7.27329 12.9328H5.09517V15.1111H7.27329V12.9328Z" fill="black"/>
<path d="M13.6263 12.9328H11.4482V15.1111H13.6263V12.9328Z" fill="black"/>
<path d="M10.4498 12.9328H8.27171V15.1111H10.4498V12.9328Z" fill="black"/>
<path d="M16.8027 16.3361H14.6246V18.5144H16.8027V16.3361Z" fill="black"/>
<path d="M13.6263 16.3361H11.4482V18.5144H13.6263V16.3361Z" fill="black"/>
<path d="M10.4498 16.3361H8.27171V18.5144H10.4498V16.3361Z" fill="black"/>
<path d="M18.7947 2.35641H17.0235V4.05462C17.0235 4.68826 16.5014 5.20359 15.8598 5.20359H13.5471C12.9055 5.20359 12.3835 4.68826 12.3835 4.05462V2.35641H9.51131V4.03865C9.51131 4.68112 8.98353 5.20359 8.33477 5.20359H6.04778C5.39902 5.20359 4.87124 4.68112 4.87124 4.03865V2.35641H3.10001C1.94821 2.35641 1.01114 3.28501 1.01114 4.42636V19.8479C1.01114 20.9892 1.94821 21.9178 3.10001 21.9178H18.7947C19.9483 21.9178 20.8867 20.9892 20.8867 19.8479V4.42636C20.8867 3.28505 19.9483 2.35641 18.7947 2.35641ZM19.3893 19.8077C19.3893 20.1741 19.1431 20.4202 18.7767 20.4202H3.1212C2.75476 20.4202 2.50857 20.1741 2.50857 19.8077V7.62367H19.3893V19.8077Z" fill="black"/>
<path d="M6.04847 4.38814H8.33409C8.52762 4.38814 8.68507 4.23176 8.68507 4.03951V0.877269C8.68507 0.393536 8.28824 0 7.8004 0H6.58212C6.09432 0 5.69736 0.393493 5.69736 0.877269V4.03951C5.6974 4.23176 5.85485 4.38814 6.04847 4.38814Z" fill="black"/>
<path d="M13.5471 4.38814H15.8598C16.0459 4.38814 16.1973 4.23776 16.1973 4.05312V0.863784C16.1973 0.387543 15.8066 0 15.3261 0H14.0808C13.6004 0 13.2097 0.387543 13.2097 0.863784V4.05312C13.2096 4.23776 13.3611 4.38814 13.5471 4.38814Z" fill="black"/>
</g>
<rect width="6.84932" height="8.90411" transform="translate(10.9523 16.0959)" fill="#DEF2F1"/>
<rect width="5.82192" height="11.3014" transform="translate(17.8017 13.6986)" fill="#DEF2F1"/>
<rect width="14.726" height="5.47945" transform="translate(8.89755 19.5205)" fill="#DEF2F1"/>
<path d="M18.0015 15.1541C17.9564 15.1572 17.9125 15.1678 17.8724 15.1853C17.8322 15.2028 17.7965 15.227 17.7673 15.2563C17.7381 15.2856 17.716 15.3195 17.7023 15.3561C17.6887 15.3927 17.6836 15.4312 17.6875 15.4695V18.0408C13.3496 18.4047 10.5528 20.9275 10.4957 23.4746C10.4957 23.6202 10.5528 23.7172 10.667 23.7172C10.7811 23.7172 10.8667 23.6444 10.9809 23.4504C11.6658 22.1404 13.2069 21.3884 17.6875 21.2186V23.5716C17.6836 23.6099 17.6887 23.6484 17.7023 23.685C17.716 23.7216 17.7381 23.7555 17.7673 23.7849C17.7965 23.8142 17.8322 23.8383 17.8724 23.8558C17.9125 23.8733 17.9564 23.8839 18.0015 23.887C18.0462 23.8891 18.0907 23.8813 18.1308 23.8643C18.1708 23.8473 18.205 23.8217 18.2298 23.79L22.9387 19.7874C23.0089 19.7207 23.0477 19.6343 23.0477 19.5448C23.0477 19.4553 23.0089 19.369 22.9387 19.3022L18.2298 15.2512C18.205 15.2195 18.1708 15.1938 18.1308 15.1768C18.0907 15.1598 18.0462 15.152 18.0015 15.1541Z" fill="black"/>
<defs>
<clipPath id="clip0_358_6269">
<rect width="21.9178" height="21.9178" fill="white" transform="translate(-0.00997925)"/>
</clipPath>
</defs>
</svg>
