<svg width="25" height="26" viewBox="0 0 25 26" fill="none" xmlns="http://www.w3.org/2000/svg">
<g clip-path="url(#clip0_358_6337)">
<path d="M8.18331 9.52942H6.00519V11.7077H8.18331V9.52942Z" fill="white"/>
<path d="M17.7127 9.52942H15.5346V11.7077H17.7127V9.52942Z" fill="white"/>
<path d="M14.5363 9.52942H12.3582V11.7077H14.5363V9.52942Z" fill="white"/>
<path d="M8.18331 12.9328H6.00519V15.1111H8.18331V12.9328Z" fill="white"/>
<path d="M14.5363 12.9328H12.3582V15.1111H14.5363V12.9328Z" fill="white"/>
<path d="M11.3598 12.9328H9.1817V15.1111H11.3598V12.9328Z" fill="white"/>
<path d="M17.7127 16.3361H15.5346V18.5144H17.7127V16.3361Z" fill="white"/>
<path d="M14.5363 16.3361H12.3582V18.5144H14.5363V16.3361Z" fill="white"/>
<path d="M11.3598 16.3361H9.1817V18.5144H11.3598V16.3361Z" fill="white"/>
<path d="M19.7047 2.35641H17.9335V4.05462C17.9335 4.68826 17.4114 5.20359 16.7698 5.20359H14.4571C13.8155 5.20359 13.2935 4.68826 13.2935 4.05462V2.35641H10.4213V4.03865C10.4213 4.68112 9.89353 5.20359 9.24477 5.20359H6.95779C6.30903 5.20359 5.78124 4.68112 5.78124 4.03865V2.35641H4.01001C2.85821 2.35641 1.92114 3.28501 1.92114 4.42636V19.8479C1.92114 20.9892 2.85821 21.9178 4.01001 21.9178H19.7047C20.8583 21.9178 21.7967 20.9892 21.7967 19.8479V4.42636C21.7967 3.28505 20.8583 2.35641 19.7047 2.35641ZM20.2993 19.8077C20.2993 20.1741 20.0531 20.4202 19.6867 20.4202H4.0312C3.66476 20.4202 3.41857 20.1741 3.41857 19.8077V7.62367H20.2993V19.8077Z" fill="white"/>
<path d="M6.95847 4.38814H9.24409C9.43763 4.38814 9.59507 4.23176 9.59507 4.03951V0.877269C9.59507 0.393536 9.19824 0 8.7104 0H7.49212C7.00432 0 6.60736 0.393493 6.60736 0.877269V4.03951C6.6074 4.23176 6.76485 4.38814 6.95847 4.38814Z" fill="white"/>
<path d="M14.4571 4.38814H16.7698C16.9559 4.38814 17.1073 4.23776 17.1073 4.05312V0.863784C17.1073 0.387543 16.7166 0 16.2361 0H14.9908C14.5104 0 14.1197 0.387543 14.1197 0.863784V4.05312C14.1196 4.23776 14.2711 4.38814 14.4571 4.38814Z" fill="white"/>
</g>
<rect width="6.84932" height="8.90411" transform="translate(11.8624 16.0959)" fill="#2A7378"/>
<rect width="5.82192" height="11.3014" transform="translate(18.7117 13.6986)" fill="#2A7378"/>
<rect width="14.726" height="5.47945" transform="translate(9.80756 19.5205)" fill="#2A7378"/>
<path d="M18.9115 15.1541C18.8664 15.1572 18.8226 15.1678 18.7824 15.1853C18.7422 15.2028 18.7065 15.227 18.6773 15.2563C18.6481 15.2856 18.626 15.3195 18.6124 15.3561C18.5987 15.3927 18.5936 15.4312 18.5975 15.4695V18.0408C14.2596 18.4047 11.4628 20.9275 11.4058 23.4746C11.4058 23.6202 11.4628 23.7172 11.577 23.7172C11.6911 23.7172 11.7768 23.6444 11.8909 23.4504C12.5759 22.1404 14.1169 21.3884 18.5975 21.2186V23.5716C18.5936 23.6099 18.5987 23.6484 18.6124 23.685C18.626 23.7216 18.6481 23.7555 18.6773 23.7849C18.7065 23.8142 18.7422 23.8383 18.7824 23.8558C18.8226 23.8733 18.8664 23.8839 18.9115 23.887C18.9562 23.8891 19.0008 23.8813 19.0408 23.8643C19.0809 23.8473 19.115 23.8217 19.1398 23.79L23.8487 19.7874C23.9189 19.7207 23.9577 19.6343 23.9577 19.5448C23.9577 19.4553 23.9189 19.369 23.8487 19.3022L19.1398 15.2512C19.115 15.2195 19.0809 15.1938 19.0408 15.1768C19.0008 15.1598 18.9562 15.152 18.9115 15.1541Z" fill="white"/>
<defs>
<clipPath id="clip0_358_6337">
<rect width="21.9178" height="21.9178" fill="white" transform="translate(0.900024)"/>
</clipPath>
</defs>
</svg>
