<svg width="21" height="20" viewBox="0 0 21 20" fill="none" xmlns="http://www.w3.org/2000/svg">
<path d="M10.5003 1.66602C8.85215 1.66602 7.24099 2.15476 5.87058 3.07044C4.50017 3.98611 3.43206 5.2876 2.80133 6.81032C2.1706 8.33304 2.00558 10.0086 2.32712 11.6251C2.64866 13.2416 3.44234 14.7265 4.60777 15.8919C5.77321 17.0573 7.25807 17.851 8.87458 18.1726C10.4911 18.4941 12.1666 18.3291 13.6894 17.6983C15.2121 17.0676 16.5136 15.9995 17.4292 14.6291C18.3449 13.2587 18.8337 11.6475 18.8337 9.99935C18.8337 8.905 18.6181 7.82137 18.1993 6.81032C17.7805 5.79927 17.1667 4.88061 16.3929 4.10679C15.6191 3.33297 14.7004 2.71914 13.6894 2.30035C12.6783 1.88156 11.5947 1.66602 10.5003 1.66602ZM15.2303 8.53018L10.2303 13.1135C10.072 13.2587 9.86379 13.3371 9.64906 13.3324C9.43433 13.3278 9.22969 13.2404 9.07783 13.0885L6.57783 10.5885C6.49824 10.5116 6.43475 10.4197 6.39108 10.318C6.3474 10.2163 6.32442 10.107 6.32345 9.99635C6.32249 9.8857 6.34358 9.77597 6.38548 9.67355C6.42738 9.57114 6.48926 9.4781 6.5675 9.39985C6.64574 9.32161 6.73879 9.25973 6.8412 9.21783C6.94361 9.17593 7.05335 9.15484 7.164 9.15581C7.27465 9.15677 7.384 9.17976 7.48567 9.22343C7.58734 9.2671 7.67929 9.33059 7.75616 9.41018L9.692 11.346L14.1037 7.30185C14.2665 7.15244 14.4821 7.07386 14.7029 7.0834C14.9238 7.09293 15.1318 7.18979 15.2812 7.35268C15.4306 7.51557 15.5091 7.73114 15.4996 7.95196C15.4901 8.17278 15.3932 8.38078 15.2303 8.53018Z" fill="#3AAFA9"/>
</svg>
