<svg width="40" height="40" viewBox="0 0 40 40" fill="none" xmlns="http://www.w3.org/2000/svg">
<path d="M19.9997 3.33398C16.7033 3.33398 13.481 4.31147 10.7402 6.14282C7.99936 7.97418 5.86315 10.5772 4.60169 13.6226C3.34023 16.668 3.01017 20.0191 3.65326 23.2522C4.29635 26.4852 5.88369 29.4549 8.21457 31.7858C10.5454 34.1166 13.5152 35.704 16.7482 36.3471C19.9812 36.9902 23.3323 36.6601 26.3777 35.3986C29.4232 34.1372 32.0261 32.001 33.8575 29.2602C35.6889 26.5193 36.6663 23.297 36.6663 20.0006C36.6663 17.812 36.2352 15.6447 35.3977 13.6226C34.5601 11.6005 33.3324 9.76318 31.7848 8.21554C30.2371 6.66789 28.3998 5.44024 26.3777 4.60266C24.3556 3.76508 22.1884 3.33398 19.9997 3.33398ZM29.4597 17.0623L19.4597 26.229C19.1431 26.5193 18.7266 26.6762 18.2971 26.6668C17.8677 26.6575 17.4584 26.4828 17.1547 26.179L12.1547 21.179C11.9955 21.0252 11.8685 20.8413 11.7812 20.638C11.6938 20.4346 11.6479 20.2159 11.6459 19.9947C11.644 19.7734 11.6862 19.5539 11.77 19.3491C11.8538 19.1442 11.9775 18.9581 12.134 18.8017C12.2905 18.6452 12.4766 18.5214 12.6814 18.4376C12.8863 18.3538 13.1057 18.3116 13.327 18.3136C13.5483 18.3155 13.767 18.3615 13.9704 18.4488C14.1737 18.5362 14.3576 18.6631 14.5113 18.8223L18.383 22.694L27.2063 14.6056C27.5321 14.3068 27.9633 14.1497 28.4049 14.1687C28.8465 14.1878 29.2625 14.3815 29.5613 14.7073C29.8602 15.0331 30.0173 15.4642 29.9982 15.9059C29.9792 16.3475 29.7855 16.7635 29.4597 17.0623Z" fill="#3AAFA9"/>
</svg>
