<svg width="80" height="30" viewBox="0 0 80 30" fill="none" xmlns="http://www.w3.org/2000/svg">
<path d="M75.2396 13.5208C75.2812 13.1875 75.3125 12.8542 75.3125 12.5C75.3125 12.1458 75.2812 11.8125 75.2396 11.4792L77.4375 9.76041C77.6354 9.60416 77.6875 9.32291 77.5625 9.09374L75.4792 5.48958C75.3542 5.26041 75.0729 5.17708 74.8438 5.26041L72.25 6.30208C71.7083 5.88541 71.125 5.54166 70.4896 5.28125L70.0938 2.52083C70.0625 2.27083 69.8438 2.08333 69.5833 2.08333H65.4167C65.1562 2.08333 64.9375 2.27083 64.9063 2.52083L64.5104 5.28125C63.875 5.54166 63.2917 5.89583 62.75 6.30208L60.1563 5.26041C59.9167 5.16666 59.6458 5.26041 59.5208 5.48958L57.4375 9.09374C57.3021 9.32291 57.3646 9.60416 57.5625 9.76041L59.7604 11.4792C59.7188 11.8125 59.6875 12.1562 59.6875 12.5C59.6875 12.8437 59.7188 13.1875 59.7604 13.5208L57.5625 15.2396C57.3646 15.3958 57.3125 15.6771 57.4375 15.9062L59.5208 19.5104C59.6458 19.7396 59.9271 19.8229 60.1563 19.7396L62.75 18.6979C63.2917 19.1146 63.875 19.4583 64.5104 19.7187L64.9063 22.4792C64.9375 22.7292 65.1562 22.9167 65.4167 22.9167H69.5833C69.8438 22.9167 70.0625 22.7292 70.0938 22.4792L70.4896 19.7187C71.125 19.4583 71.7083 19.1042 72.25 18.6979L74.8438 19.7396C75.0833 19.8333 75.3542 19.7396 75.4792 19.5104L77.5625 15.9062C77.6875 15.6771 77.6354 15.3958 77.4375 15.2396L75.2396 13.5208ZM67.5 16.1458C65.4896 16.1458 63.8542 14.5104 63.8542 12.5C63.8542 10.4896 65.4896 8.85416 67.5 8.85416C69.5104 8.85416 71.1458 10.4896 71.1458 12.5C71.1458 14.5104 69.5104 16.1458 67.5 16.1458Z" fill="black"/>
<g clip-path="url(#clip0_93_8396)">
<path fill-rule="evenodd" clip-rule="evenodd" d="M46.4286 16.0714V8.92857C46.4286 3.99821 42.4304 0 37.5 0C32.5696 0 28.5714 3.99821 28.5714 8.92857V16.0714L25 23.2143H34.9857C35.3545 24.2527 36.3348 25 37.5 25C38.6652 25 39.6455 24.2527 40.0143 23.2143H50L46.4286 16.0714Z" fill="black"/>
</g>
<path d="M17.6125 2.79125C16.1875 1.76375 14.3975 1.25 12.2425 1.25C10.6037 1.25 9.22 1.61125 8.09625 2.335C6.3125 3.4675 5.365 5.39125 5.25 8.10375H9.38375C9.38375 7.3125 9.615 6.55375 10.075 5.81875C10.5363 5.08625 11.3187 4.72 12.4225 4.72C13.545 4.72 14.3188 5.0175 14.74 5.61125C15.1637 6.2075 15.375 6.86625 15.375 7.58875C15.375 8.21875 15.06 8.795 14.6788 9.3175C14.4515 9.64187 14.1724 9.92653 13.8525 10.16C13.8525 10.16 11.6112 11.5975 10.6275 12.7525C10.0575 13.4213 10.0063 14.425 9.955 15.8625C9.9525 15.965 9.99125 16.1775 10.3488 16.1775H13.5625C13.8825 16.1775 13.9487 15.9413 13.9525 15.835C13.975 15.3125 14.0325 15.0438 14.1288 14.7413C14.3088 14.17 14.8012 13.6725 15.3525 13.2425L16.49 12.4588C17.5175 11.6575 18.3362 11.0013 18.6987 10.4863C19.3162 9.64125 19.7512 8.59875 19.7512 7.36125C19.75 5.3425 19.0375 3.82125 17.6125 2.79125ZM12.1763 18.655C10.7525 18.6113 9.5775 19.5975 9.5325 21.1425C9.48875 22.685 10.605 23.7063 12.03 23.7475C13.5162 23.7913 14.66 22.8388 14.7063 21.2938C14.7488 19.7488 13.6638 18.6988 12.1763 18.655Z" fill="black"/>
<defs>
<clipPath id="clip0_93_8396">
<rect width="25" height="25" fill="white" transform="translate(25)"/>
</clipPath>
</defs>
</svg>
