<svg width="23" height="20" viewBox="0 0 23 20" fill="none" xmlns="http://www.w3.org/2000/svg">
<path d="M17.3051 15.625H17.3163M15.7336 12.25H18.4276C19.4736 12.25 19.9966 12.25 20.4093 12.4212C20.9593 12.6496 21.3964 13.0877 21.6243 13.6389C21.7951 14.0525 21.7951 14.5766 21.7951 15.625C21.7951 16.6734 21.7951 17.1975 21.6243 17.6111C21.3964 18.1623 20.9593 18.6004 20.4093 18.8288C19.9966 19 19.4736 19 18.4276 19H4.95751C3.91147 19 3.38845 19 2.97588 18.8288C2.42579 18.6004 1.98874 18.1623 1.76089 17.6111C1.59 17.1975 1.59 16.6734 1.59 15.625C1.59 14.5766 1.59 14.0525 1.76089 13.6389C1.98874 13.0877 2.42579 12.6496 2.97588 12.4212C3.38845 12.25 3.91147 12.25 4.95751 12.25H7.65153M11.6925 13.375V1M11.6925 1L15.0601 4.375M11.6925 1L8.32503 4.375" stroke="#DEF2F1" stroke-width="2" stroke-linecap="round" stroke-linejoin="round"/>
</svg>
